<?xml version="1.0" ?><svg id="Layer_1_1_" style="enable-background:new 0 0 64 64;" version="1.1" viewBox="0 0 64 64" xml:space="preserve" xmlns="http://www.w3.org/2000/svg" xmlns:xlink="http://www.w3.org/1999/xlink"><circle cx="7.5" cy="48.5" r="3.5"/><path d="M12,57l5,1.894c0.544,0.272,1.203-0.001,1.396-0.578L20,51h-2.294l-1.979-3.427c0.153-0.095,0.304-0.189,0.465-0.286  l-2.846-4.93c-0.941,0.52-1.817,0.956-2.243,1.117l3,5.196c0.167-0.137,0.444-0.333,0.781-0.557l1.98,3.429L16,55l-2.933-2.2  c-0.692-0.519-1.534-0.8-2.4-0.8H7.5H5c-1.657,0-3,1.343-3,3v8h10V57z"/><path d="M17.055,46.782c0.815-0.461,1.633-0.881,2.245-1.112c2.221-0.84,4.189-0.851,5.33-0.768l-5-8.66  c-0.499,1.03-1.492,2.728-3.33,4.232c-0.506,0.414-1.279,0.913-2.085,1.388L17.055,46.782z"/><path d="M30.143,40.664l1.994,0.146c0.141-1.928-0.308-3.84-1.296-5.53c-1.001-1.713-2.44-3.045-4.163-3.852L25.83,33.24  c1.353,0.633,2.488,1.688,3.284,3.049C29.897,37.628,30.253,39.141,30.143,40.664z"/><path d="M28.558,27.81l-0.904,1.783c2.034,1.032,3.735,2.652,4.919,4.686c1.188,2.039,1.75,4.325,1.626,6.612L36.195,41  c0.146-2.679-0.51-5.351-1.895-7.728C32.923,30.906,30.937,29.017,28.558,27.81z"/><path d="M27.385,37.293c-0.576-0.997-1.411-1.819-2.414-2.376L24,36.666c0.687,0.381,1.258,0.943,1.652,1.627  c0.396,0.685,0.602,1.458,0.596,2.236l2,0.015C28.257,39.41,27.958,38.286,27.385,37.293z"/><path d="M33.142,48.787l-0.297,1.978c0.698,0.105,1.409,0.176,2.114,0.21l0.098-1.998C34.418,48.946,33.774,48.882,33.142,48.787z"/><path d="M31.258,48.403c-0.618-0.159-1.236-0.351-1.836-0.573l-0.693,1.876c0.664,0.245,1.348,0.458,2.031,0.634L31.258,48.403z"/><path d="M24.914,47.839c0.604,0.375,1.229,0.722,1.86,1.031l0.879-1.796c-0.57-0.28-1.137-0.594-1.683-0.933L24.914,47.839z"/><path d="M52.619,39.215l1.748,0.972c0.343-0.616,0.658-1.258,0.938-1.909l-1.838-0.789C53.214,38.077,52.929,38.658,52.619,39.215z"/><path d="M15.435,33.007c0.142,0.689,0.322,1.382,0.536,2.059l1.906-0.603c-0.192-0.611-0.355-1.237-0.483-1.859L15.435,33.007z"/><path d="M54.136,35.685l1.908,0.6c0.211-0.672,0.39-1.365,0.531-2.061l-1.959-0.399C54.488,34.453,54.326,35.079,54.136,35.685z"/><path d="M15.11,30.906l1.99-0.204c-0.065-0.632-0.099-1.278-0.1-1.921l-2,0.003C15.002,29.493,15.039,30.208,15.11,30.906z"/><path d="M57,30v-0.083L55,30c0,0.641-0.032,1.288-0.096,1.923l1.99,0.198C56.965,31.42,57,30.707,57,30z"/><path d="M15.102,26.662l1.99,0.195c0.062-0.636,0.158-1.276,0.285-1.901l-1.961-0.396C15.276,25.251,15.17,25.959,15.102,26.662z"/><path d="M15.943,22.499l1.91,0.593c0.19-0.613,0.413-1.219,0.663-1.803l-1.838-0.788C16.401,21.149,16.154,21.821,15.943,22.499z"/><path d="M17.611,18.59l1.75,0.969c0.312-0.564,0.654-1.114,1.016-1.634l-1.643-1.142C18.335,17.359,17.957,17.967,17.611,18.59z"/><path d="M42.541,12.155c0.599,0.22,1.194,0.473,1.77,0.753l0.875-1.798c-0.636-0.31-1.294-0.59-1.957-0.833L42.541,12.155z"/><path d="M40.705,11.586l0.492-1.938c-0.686-0.174-1.387-0.315-2.083-0.419l-0.295,1.979C39.45,11.301,40.084,11.429,40.705,11.586z"/><path d="M28,2c-4.418,0-8,3.582-8,8s3.582,8,8,8s8-3.582,8-8S32.418,2,28,2z M28,17c-1.955,0-3.72-0.803-4.99-2.095  C23.061,12.741,24.823,11,27,11h1c-1.657,0-3-1.343-3-3s1.343-3,3-3s3,1.343,3,3s-1.343,3-3,3h1c2.177,0,3.939,1.741,3.99,3.905  C31.72,16.197,29.955,17,28,17z"/><path d="M54,11c-4.418,0-8,3.582-8,8s3.582,8,8,8s8-3.582,8-8S58.418,11,54,11z M54,26c-1.955,0-3.72-0.803-4.99-2.095  C49.061,21.741,50.823,20,53,20h1c-1.657,0-3-1.343-3-3s1.343-3,3-3s3,1.343,3,3s-1.343,3-3,3h1c2.177,0,3.939,1.741,3.99,3.905  C57.72,25.197,55.955,26,54,26z"/><path d="M39,49c0,4.418,3.582,8,8,8s8-3.582,8-8s-3.582-8-8-8S39,44.582,39,49z M50,47c0,1.657-1.343,3-3,3h1  c2.177,0,3.939,1.741,3.99,3.905C50.72,55.197,48.955,56,47,56c-1.955,0-3.72-0.803-4.99-2.095C42.061,51.741,43.823,50,46,50h1  c-1.657,0-3-1.343-3-3s1.343-3,3-3S50,45.343,50,47z"/></svg>